<svg xmlns="http://www.w3.org/2000/svg" version="1.1" xmlns:xlink="http://www.w3.org/1999/xlink" xmlns:svgjs="http://svgjs.dev/svgjs" width="2000" height="499" viewBox="0 0 2000 499"><g transform="matrix(1,0,0,1,-1.2112696095522324,-0.2524834157326268)"><svg viewBox="0 0 396 99" data-background-color="#ffffff" preserveAspectRatio="xMidYMid meet" height="499" width="2000" xmlns="http://www.w3.org/2000/svg" xmlns:xlink="http://www.w3.org/1999/xlink"><g id="tight-bounds" transform="matrix(1,0,0,1,0.24008861730862918,0.050091900115290855)"><svg viewBox="0 0 395.52 98.89981619976942" height="98.89981619976942" width="395.52"><g><svg viewBox="0 0 395.52 98.89981619976942" height="98.89981619976942" width="395.52"><g><svg viewBox="0 0 395.52 98.89981619976942" height="98.89981619976942" width="395.52"><g id="textblocktransform"><svg viewBox="0 0 395.52 98.89981619976942" height="98.89981619976942" width="395.52" id="textblock"><g><svg viewBox="0 0 395.52 98.89981619976942" height="98.89981619976942" width="395.52"><path d="M394.594 21.212C392.735 10.946 387.435 8.092 387.435 8.092 371.165-2.481 350.86-0.202 332.619 1.317 300.414 1.379 268.339 3.637 236.208 4.848 168.767 5.033 100.749 1.995 33.643 9.489 27.339 11.788-6.54 9.94 1.121 22.526 3.129 27.762 10.456 33.572 10.232 38.376 11.236 39.218 12.631 37.288 13.226 38.5 15.309 41.764 18.711 40.224 21.501 42.154 17.614 47.308 20.403 51.599 23.062 56.095 18.377 57.265 12.371 56.711 9.675 60.592 9.396 63.404 7.89 62.871 6.235 62.747 5.026 62.665 2.59 62.973 2.999 63.856 4.394 66.874-1.594 68.619 2.162 71.576-0.422 74.779 3.948 77.551 3.353 81.02 3.278 81.719 3.687 82.314 4.338 82.478 7.22 83.361 3.018 85.086 3.464 86.954 33.029 99.725 65.104 90.896 95.394 96.768 103.259 92.662 97.346 98.226 100.489 97.364 102.943 96.358 104.728 100.525 107.499 98.164 107.927 97.487 107.276 95.885 108.8 96.193 109.6 96.358 110.307 96.316 110.418 95.372 110.586 93.955 109.117 94.838 108.726 94.099 112.947 90.362 111.906 99.252 115.866 98.883 115.68 97.795 114.528 96.234 116.889 96.44 119.232 94.879 119.306 93.586 121.389 97.097 121.463 97.856 121.835 98.39 122.43 98.76 128.938 94.941 135.409 100.115 142.233 98.39 146.417 96.501 150.433 99.417 154.672 98.698 156.16 98.123 157.666 97.097 159.098 98.821 176.632 99.191 195.319 97.651 211.943 98.883 256.364 96.583 303.836 99.827 350.674 96.789 361.719 95.618 373.192 93.955 383.958 92.621 383.958 92.621 392.679 88.966 392.679 72.541S394.538 58.169 394.817 45.09C395.096 32.012 396.398 31.478 394.538 21.212Z" opacity="1" fill="#742437" data-fill-palette-color="tertiary"></path><g transform="matrix(1,0,0,1,55.76832,26.230666666666668)"><svg width="283.98335999999995" viewBox="5 -49.300889805524996 458.61 75.00088980552499" height="46.438482866436075" data-palette-color="#ffffff"><path d="M7.3 0.35L7.3 0.35Q6.05 0.35 5 0L5 0 5-36.1 16.95-36.1Q20.3-36.1 23.18-35.08 26.05-34.05 27.83-31.75 29.6-29.45 29.6-25.7L29.6-25.7Q29.6-22.8 28.45-20.73 27.3-18.65 25.5-17.32 23.7-16 21.65-15.25L21.65-15.25 30.6-2.7Q30.2-1.65 29.18-0.8 28.15 0.05 26.95 0.3L26.95 0.3 16.65-14.15Q16.1-14.1 15.6-14.1L15.6-14.1 9.65-14.1 9.65 0Q8.45 0.35 7.3 0.35ZM17.35-31.8L17.35-31.8 9.65-31.8 9.65-18.4 15.6-18.4Q17.15-18.4 18.78-18.73 20.4-19.05 21.75-19.83 23.1-20.6 23.95-22 24.8-23.4 24.8-25.55L24.8-25.55Q24.8-28.6 22.7-30.2 20.6-31.8 17.35-31.8ZM33.45-3.6L33.45-3.6Q35.15-3.6 36.77-5.28 38.4-6.95 39.5-9.8L39.5-9.8Q39.45-10.5 39.45-11.2L39.45-11.2Q39.45-15 40.95-17.95 42.45-20.9 45.02-22.6 47.6-24.3 50.9-24.3L50.9-24.3Q52.65-24.3 54.35-23.63 56.05-22.95 57.2-21.8L57.2-21.8 57.2-23.85Q57.65-24 58.25-24.1 58.85-24.2 59.5-24.2L59.5-24.2Q60.7-24.2 61.75-23.85L61.75-23.85 61.75-9.2Q61.75-6.55 62.57-5.08 63.4-3.6 65.35-3.6L65.35-3.6Q66.2-3.6 66.5-2.9 66.8-2.2 66.8-1.4L66.8-1.4Q66.8-0.6 66.37 0.05 65.95 0.7 65 0.7L65 0.7Q60.1 0.7 58.45-3.7L58.45-3.7Q57-1.65 54.82-0.48 52.65 0.7 50 0.7L50 0.7Q47.1 0.7 44.87-0.58 42.65-1.85 41.25-4.1L41.25-4.1Q38.15 0.7 33.1 0.7L33.1 0.7Q32.45 0.7 32.05 0.1 31.65-0.5 31.65-1.45L31.65-1.45Q31.65-3.6 33.45-3.6ZM44.1-11.2L44.1-11.2Q44.1-7.65 45.72-5.63 47.35-3.6 50.2-3.6L50.2-3.6Q53.35-3.6 55.27-5.75 57.2-7.9 57.2-11.4L57.2-11.4 57.2-17Q56.2-18.35 54.65-19.18 53.1-20 51.45-20L51.45-20Q49.3-20 47.65-18.85 46-17.7 45.05-15.73 44.1-13.75 44.1-11.2ZM65.35-3.6L65.35-3.6Q66.4-3.6 67.6-4.25 68.8-4.9 69.85-6.25L69.85-6.25Q71.1-7.95 71.67-10.15 72.25-12.35 72.4-14.6L72.4-14.6 72.4-23.6Q72.85-23.75 73.45-23.85 74.05-23.95 74.7-23.95L74.7-23.95Q75.85-23.95 76.95-23.6L76.95-23.6 76.95-9.2Q76.95-6.55 77.77-5.08 78.6-3.6 80.55-3.6L80.55-3.6Q81.4-3.6 81.7-2.9 82-2.2 82-1.4L82-1.4Q82-0.6 81.57 0.05 81.15 0.7 80.2 0.7L80.2 0.7Q75 0.7 73.45-4.2L73.45-4.2Q72.75-3.05 71.95-2.25L71.95-2.25Q70.6-0.9 68.82-0.1 67.05 0.7 65 0.7L65 0.7Q64.3 0.7 63.92 0.03 63.55-0.65 63.55-1.45L63.55-1.45Q63.55-2.3 63.97-2.95 64.4-3.6 65.35-3.6ZM74.75-30.8L74.75-30.8Q73.35-30.8 72.35-31.8 71.35-32.8 71.35-34.2L71.35-34.2Q71.35-35.7 72.32-36.65 73.3-37.6 74.75-37.6L74.75-37.6Q76.25-37.6 77.2-36.65 78.15-35.7 78.15-34.2L78.15-34.2Q78.15-32.75 77.17-31.78 76.2-30.8 74.75-30.8ZM80.19 0.7L80.19 0.7Q79.54 0.7 79.14 0.1 78.74-0.5 78.74-1.45L78.74-1.45Q78.74-3.6 80.54-3.6L80.54-3.6Q82.14-3.6 83.42-5.23 84.69-6.85 85.64-10.65L85.64-10.65 87.14-16.5Q89.24-24.3 95.14-24.3L95.14-24.3Q97.39-24.3 98.94-22.98 100.49-21.65 101.09-19.4L101.09-19.4Q102.49-21.75 104.69-23.03 106.89-24.3 109.59-24.3L109.59-24.3Q113.49-24.3 115.62-21.75 117.74-19.2 117.74-14.6L117.74-14.6 117.74-8.75Q117.74-6 118.47-4.8 119.19-3.6 120.79-3.6L120.79-3.6Q121.49-3.6 121.87-3 122.24-2.4 122.24-1.4L122.24-1.4Q122.24-0.6 121.82 0.05 121.39 0.7 120.44 0.7L120.44 0.7Q113.19 0.7 113.19-8.2L113.19-8.2 113.19-14.6Q113.19-20 108.94-20L108.94-20Q106.74-20 105.07-18.25 103.39-16.5 102.47-13.4 101.54-10.3 101.54-6.2L101.54-6.2 101.54 0Q101.04 0.15 100.44 0.25 99.84 0.35 99.29 0.35L99.29 0.35Q98.09 0.35 97.04 0L97.04 0 97.04-15.95Q97.04-17.9 96.54-18.95 96.04-20 94.74-20L94.74-20Q93.69-20 92.94-19.05 92.19-18.1 91.64-16L91.64-16 89.79-8.8Q88.49-3.85 86.19-1.58 83.89 0.7 80.19 0.7ZM120.44 0.7L120.44 0.7Q119.79 0.7 119.39 0.1 118.99-0.5 118.99-1.45L118.99-1.45Q118.99-2.45 119.47-3.03 119.94-3.6 120.74-3.6L120.74-3.6Q122.54-3.6 124.64-5.05 126.74-6.5 128.69-9.05L128.69-9.05Q127.89-12.7 127.89-19.25L127.89-19.25 127.89-33.15Q127.89-37.3 128.17-39.85 128.44-42.4 129.09-44.1L129.09-44.1Q130.04-46.6 131.84-47.95 133.64-49.3 136.09-49.3L136.09-49.3Q139.49-49.3 141.54-45.98 143.59-42.65 143.59-37.05L143.59-37.05Q143.59-32.3 142.42-27.25 141.24-22.2 138.99-17.28 136.74-12.35 133.54-8L133.54-8Q133.69-7.65 133.84-7.35L133.84-7.35Q134.89-5.5 136.32-4.63 137.74-3.75 139.84-3.75L139.84-3.75Q142.09-3.75 143.79-5 145.49-6.25 146.44-8.47 147.39-10.7 147.39-13.6L147.39-13.6Q147.39-14.65 147.24-15.7L147.24-15.7Q144.09-17.7 143.09-19.25L143.09-19.25Q143.44-20.25 144.22-21.18 144.99-22.1 145.94-22.68 146.89-23.25 147.74-23.25L147.74-23.25Q148.89-23.25 149.84-22.03 150.79-20.8 151.37-18.78 151.94-16.75 151.94-14.3L151.94-14.3Q151.94-9.8 150.47-6.48 148.99-3.15 146.27-1.33 143.54 0.5 139.84 0.5L139.84 0.5Q133.29 0.5 130.39-4.4L130.39-4.4Q125.79 0.7 120.44 0.7ZM132.09-33.75L132.09-20.25Q132.09-16.2 132.34-13.6L132.34-13.6Q135.79-19.5 137.57-25.55 139.34-31.6 139.34-37.1L139.34-37.1Q139.34-45.15 135.84-45.15L135.84-45.15Q133.79-45.15 132.89-42.4L132.89-42.4Q132.09-39.95 132.09-33.75L132.09-33.75ZM154.94-3.6L154.94-3.6Q156.59-3.6 158.16-5.18 159.74-6.75 160.84-9.4L160.84-9.4Q160.64-10.6 160.64-11.85L160.64-11.85Q160.64-15.45 162.19-18.25 163.74-21.05 166.41-22.68 169.09-24.3 172.44-24.3L172.44-24.3Q175.79-24.3 178.44-22.68 181.09-21.05 182.61-18.25 184.14-15.45 184.14-11.85L184.14-11.85Q184.14-8.25 182.61-5.4 181.09-2.55 178.46-0.93 175.84 0.7 172.44 0.7L172.44 0.7Q169.39 0.7 166.91-0.63 164.44-1.95 162.84-4.25L162.84-4.25Q159.74 0.7 154.59 0.7L154.59 0.7Q153.94 0.7 153.54 0.1 153.14-0.5 153.14-1.45L153.14-1.45Q153.14-3.6 154.94-3.6ZM172.39-3.6L172.39-3.6Q175.59-3.6 177.51-5.85 179.44-8.1 179.44-11.85L179.44-11.85Q179.44-13.7 178.89-15.25L178.89-15.25Q175.89-15.35 173.46-16.45 171.04-17.55 169.64-19.45L169.64-19.45Q167.64-18.6 166.49-16.57 165.34-14.55 165.34-11.75L165.34-11.75Q165.34-8.1 167.26-5.85 169.19-3.6 172.39-3.6ZM186.14 0.7L186.14 0.7Q185.49 0.7 185.09 0.1 184.69-0.5 184.69-1.45L184.69-1.45Q184.69-3.6 186.49-3.6L186.49-3.6Q188.09-3.6 189.36-5.23 190.64-6.85 191.59-10.65L191.59-10.65 193.09-16.5Q195.19-24.3 201.09-24.3L201.09-24.3Q204.04-24.3 205.76-22.23 207.49-20.15 207.49-16.8L207.49-16.8 207.49-10.7Q207.49-7.05 208.41-5.33 209.34-3.6 211.29-3.6L211.29-3.6Q213.79-3.6 214.99-6.3 216.19-9 216.19-13.65L216.19-13.65 216.19-16.65Q216.64-16.8 217.21-16.9 217.79-17 218.39-17L218.39-17Q219.64-17 220.64-16.65L220.64-16.65 220.64-13.65Q220.64-8.4 221.66-6 222.69-3.6 224.79-3.6L224.79-3.6Q226.49-3.6 227.59-5.13 228.69-6.65 229.24-9.33 229.79-12 229.79-15.5L229.79-15.5Q229.79-15.8 229.79-16.1L229.79-16.1Q227.34-17 226.19-18.5L226.19-18.5Q226.39-20 227.06-21.33 227.74-22.65 228.74-23.48 229.74-24.3 230.74-24.3L230.74-24.3Q232.34-24.3 233.34-21.9 234.34-19.5 234.34-15.7L234.34-15.7Q234.34-10.85 233.24-7.15 232.14-3.45 229.96-1.38 227.79 0.7 224.64 0.7L224.64 0.7Q222.59 0.7 220.94-0.35 219.29-1.4 218.29-3.35L218.29-3.35Q217.09-1.45 215.19-0.38 213.29 0.7 210.94 0.7L210.94 0.7Q207.14 0.7 205.04-2.15 202.94-5 202.94-10.15L202.94-10.15 202.94-15.95Q202.94-17.85 202.41-18.93 201.89-20 200.69-20L200.69-20Q199.64-20 198.89-19.05 198.14-18.1 197.59-16L197.59-16 195.74-8.8Q194.44-3.85 192.14-1.58 189.84 0.7 186.14 0.7ZM266.48 0L258.08 0 258.13-0.2 258.13-36.1 266.83-36.1Q272.88-36.1 277.21-34 281.53-31.9 283.86-27.93 286.18-23.95 286.18-18.25L286.18-18.25Q286.18-9.55 281.01-4.78 275.83 0 266.48 0L266.48 0ZM262.78-31.8L262.78-4.3 267.18-4.3Q274.03-4.3 277.71-7.9 281.38-11.5 281.38-18.25L281.38-18.25Q281.38-24.95 277.66-28.38 273.93-31.8 266.78-31.8L266.78-31.8 262.78-31.8ZM288.53 0.7L288.53 0.7Q287.88 0.7 287.48 0.1 287.08-0.5 287.08-1.45L287.08-1.45Q287.08-3.6 288.88-3.6L288.88-3.6Q290.33-3.6 291.83-4.08 293.33-4.55 295.33-5.7L295.33-5.7Q293.38-9.1 293.38-13.7L293.38-13.7Q293.38-16.8 294.53-19.18 295.68-21.55 297.73-22.93 299.78-24.3 302.38-24.3L302.38-24.3Q304.58-24.3 306.28-23.28 307.98-22.25 308.93-20.45 309.88-18.65 309.88-16.3L309.88-16.3Q309.88-13.1 308-10.45 306.13-7.8 301.68-4.7L301.68-4.7Q303.28-3.55 305.98-3.55L305.98-3.55Q306.68-3.55 307.08-2.95 307.48-2.35 307.48-1.35L307.48-1.35Q307.48-0.4 307.03 0.15 306.58 0.7 305.73 0.7L305.73 0.7Q303.33 0.7 301.23-0.1 299.13-0.9 297.73-2.3L297.73-2.3Q292.93 0.7 288.53 0.7ZM297.73-14.1L297.73-14.1Q297.73-10.15 299.13-7.8L299.13-7.8Q302.38-10.05 303.95-12.2 305.53-14.35 305.53-16.3L305.53-16.3Q305.53-18.1 304.65-19.13 303.78-20.15 302.23-20.15L302.23-20.15Q300.28-20.15 299-18.4 297.73-16.65 297.73-14.1ZM310.63 0.7L310.63 0.7Q309.98 0.7 309.58 0.1 309.18-0.5 309.18-1.45L309.18-1.45Q309.18-2.45 309.65-3.03 310.13-3.6 310.93-3.6L310.93-3.6Q312.53-3.6 314.38-4.75 316.23-5.9 317.98-7.9L317.98-7.9Q317.58-9.75 317.35-12.25 317.13-14.75 317.03-18.3 316.93-21.85 316.93-26.85L316.93-26.85 316.98-26.85 316.93-26.9Q316.93-31.35 317.03-34.45 317.13-37.55 317.43-39.65 317.73-41.75 318.2-43.23 318.68-44.7 319.43-45.9L319.43-45.9Q320.53-47.7 322.15-48.5 323.78-49.3 325.73-49.3L325.73-49.3Q329.63-49.3 331.73-45.85 333.83-42.4 333.83-36.35L333.83-36.35Q333.83-29.1 330.98-21.45 328.13-13.8 322.83-6.85L322.83-6.85Q323.53-5.2 324.88-4.38 326.23-3.55 327.98-3.55L327.98-3.55Q328.68-3.55 329.1-2.98 329.53-2.4 329.53-1.4L329.53-1.4Q329.53 0.7 327.68 0.7L327.68 0.7Q324.98 0.7 322.88-0.45 320.78-1.6 319.63-3.4L319.63-3.4Q315.48 0.7 310.63 0.7ZM321.38-26.6L321.38-26.6Q321.38-21.35 321.45-17.95 321.53-14.55 321.68-12.35L321.68-12.35Q325.48-18.65 327.43-24.68 329.38-30.7 329.38-36.4L329.38-36.4Q329.38-40.55 328.43-42.78 327.48-45 325.73-45L325.73-45Q323.78-45 322.78-42.7L322.78-42.7Q322.28-41.5 321.95-39.68 321.63-37.85 321.5-34.75 321.38-31.65 321.38-26.6ZM333.02-3.6L333.02-3.6Q334.07-3.6 335.27-4.25 336.47-4.9 337.52-6.25L337.52-6.25Q338.77-7.95 339.35-10.15 339.92-12.35 340.07-14.6L340.07-14.6 340.07-23.6Q340.52-23.75 341.12-23.85 341.72-23.95 342.37-23.95L342.37-23.95Q343.52-23.95 344.62-23.6L344.62-23.6 344.62-9.2Q344.62-6.55 345.45-5.08 346.27-3.6 348.22-3.6L348.22-3.6Q349.07-3.6 349.37-2.9 349.67-2.2 349.67-1.4L349.67-1.4Q349.67-0.6 349.25 0.05 348.82 0.7 347.87 0.7L347.87 0.7Q342.67 0.7 341.12-4.2L341.12-4.2Q340.42-3.05 339.62-2.25L339.62-2.25Q338.27-0.9 336.5-0.1 334.72 0.7 332.67 0.7L332.67 0.7Q331.97 0.7 331.6 0.03 331.22-0.65 331.22-1.45L331.22-1.45Q331.22-2.3 331.65-2.95 332.07-3.6 333.02-3.6ZM342.42-30.8L342.42-30.8Q341.02-30.8 340.02-31.8 339.02-32.8 339.02-34.2L339.02-34.2Q339.02-35.7 340-36.65 340.97-37.6 342.42-37.6L342.42-37.6Q343.92-37.6 344.87-36.65 345.82-35.7 345.82-34.2L345.82-34.2Q345.82-32.75 344.85-31.78 343.87-30.8 342.42-30.8ZM348.22-3.6L348.22-3.6Q349.92-3.6 351.55-5.28 353.17-6.95 354.27-9.8L354.27-9.8Q354.22-10.5 354.22-11.2L354.22-11.2Q354.22-15 355.72-17.95 357.22-20.9 359.8-22.6 362.37-24.3 365.67-24.3L365.67-24.3Q367.42-24.3 369.12-23.63 370.82-22.95 371.97-21.8L371.97-21.8 371.97-23.85Q372.42-24 373.02-24.1 373.62-24.2 374.27-24.2L374.27-24.2Q375.47-24.2 376.52-23.85L376.52-23.85 376.52 14Q376.52 25.7 367.97 25.7L367.97 25.7Q364.02 25.7 361.8 23.35 359.57 21 359.57 16.9L359.57 16.9Q359.57 7.75 372.07-0.25L372.07-0.25 372.07-2.35Q370.67-0.9 368.82-0.1 366.97 0.7 364.77 0.7L364.77 0.7Q361.87 0.7 359.65-0.58 357.42-1.85 356.02-4.1L356.02-4.1Q352.92 0.7 347.87 0.7L347.87 0.7Q347.22 0.7 346.82 0.1 346.42-0.5 346.42-1.45L346.42-1.45Q346.42-3.6 348.22-3.6ZM358.87-11.2L358.87-11.2Q358.87-7.65 360.5-5.63 362.12-3.6 364.97-3.6L364.97-3.6Q368.12-3.6 370.05-5.75 371.97-7.9 371.97-11.4L371.97-11.4 371.97-17Q370.97-18.35 369.42-19.18 367.87-20 366.22-20L366.22-20Q364.07-20 362.42-18.85 360.77-17.7 359.82-15.73 358.87-13.75 358.87-11.2ZM364.07 16.8L364.07 16.8Q364.07 18.95 365.07 20.18 366.07 21.4 367.82 21.4L367.82 21.4Q372.07 21.4 372.07 14L372.07 14 372.07 5.05Q364.07 10.7 364.07 16.8ZM382.52 0.7L382.52 0.7Q381.87 0.7 381.47 0.1 381.07-0.5 381.07-1.45L381.07-1.45Q381.07-2.45 381.54-3.03 382.02-3.6 382.82-3.6L382.82-3.6Q385.02-3.6 387.04-5.58 389.07-7.55 391.57-12.2L391.57-12.2 391.57-38.95Q391.57-43.95 393.69-46.65 395.82-49.35 399.87-49.3L399.87-49.3Q403.57-49.25 405.64-46.5 407.72-43.75 407.72-39.35L407.72-39.35Q407.72-35.8 406.42-31.45 405.12-27.1 402.97-23.1L402.97-23.1Q403.47-23.15 404.02-23.15L404.02-23.15Q407.77-23.15 409.99-20.5 412.22-17.85 412.22-13.4L412.22-13.4 412.22-9.1Q412.22-6.2 412.94-4.9 413.67-3.6 415.37-3.6L415.37-3.6Q416.17-3.6 416.52-2.98 416.87-2.35 416.87-1.4L416.87-1.4Q416.87-0.45 416.39 0.13 415.92 0.7 415.07 0.7L415.07 0.7Q411.47 0.7 409.54-1.63 407.62-3.95 407.62-8.2L407.62-8.2 407.62-13.5Q407.62-16.05 406.49-17.48 405.37-18.9 403.32-18.9L403.32-18.9Q401.32-18.9 399.72-17.57 398.12-16.25 397.17-13.95 396.22-11.65 396.17-8.65L396.17-8.65 396.17 0Q395.67 0.15 395.07 0.25 394.47 0.35 393.92 0.35L393.92 0.35Q392.77 0.35 391.57 0L391.57 0 391.57-4.1Q389.52-1.45 387.39-0.38 385.27 0.7 382.52 0.7ZM396.02-39L396.02-39 396.02-19.7Q398.27-23.15 399.89-26.65 401.52-30.15 402.39-33.43 403.27-36.7 403.27-39.4L403.27-39.4Q403.27-42.2 402.34-43.68 401.42-45.15 399.67-45.15L399.67-45.15Q396.02-45.15 396.02-39ZM415.42-3.6L415.42-3.6Q416.67-3.6 418.29-4.35 419.92-5.1 421.47-6.9 423.02-8.7 424.02-11.78 425.02-14.85 425.02-19.5L425.02-19.5 425.02-24.3 421.32-24.3Q420.97-25.1 420.97-26.3 420.97-27.5 421.32-28.3L421.32-28.3 425.02-28.3 425.02-37.15Q425.97-37.5 427.32-37.5L427.32-37.5Q428.52-37.5 429.62-37.15L429.62-37.15 429.62-28.3 437.07-28.3Q437.47-27.5 437.47-26.3 437.47-25.1 437.07-24.3L437.07-24.3 429.62-24.3 429.62-13.95Q429.62-8.95 431.14-6.28 432.67-3.6 435.47-3.6L435.47-3.6Q436.92-3.6 436.92-1.4L436.92-1.4Q436.92-0.45 436.44 0.13 435.97 0.7 435.12 0.7L435.12 0.7Q431.87 0.7 429.64-1.15 427.42-3 426.37-6.3L426.37-6.3Q424.27-2.7 421.22-1 418.17 0.7 415.07 0.7L415.07 0.7Q414.42 0.7 414.02 0.08 413.62-0.55 413.62-1.45L413.62-1.45Q413.62-2.4 414.07-3 414.52-3.6 415.42-3.6ZM435.11 0.7L435.11 0.7Q434.46 0.7 434.06 0.1 433.66-0.5 433.66-1.45L433.66-1.45Q433.66-3.6 435.46-3.6L435.46-3.6Q437.06-3.6 439.01-5.58 440.96-7.55 443.56-11.95L443.56-11.95 448.91-21Q448.81-21.7 448.81-22.5L448.81-22.5Q448.81-25 449.74-26.2 450.66-27.4 451.26-27.65L451.26-27.65Q452.11-27.85 453.09-27.63 454.06-27.4 454.86-26.9 455.66-26.4 455.96-25.7L455.96-25.7Q455.76-24.8 455.21-23.55 454.66-22.3 453.46-20.2L453.46-20.2Q453.81-19.65 454.36-19.1 454.91-18.55 455.71-17.9L455.71-17.9 459.51-14.8Q461.56-13.15 462.59-11.38 463.61-9.6 463.61-7.4L463.61-7.4Q463.61-4.75 462.11-2.7L462.11-2.7Q462.36-2.15 462.36-1.4L462.36-1.4Q462.36-0.45 461.89 0.13 461.41 0.7 460.56 0.7L460.56 0.7Q459.76 0.7 459.01 0.6 458.26 0.5 457.36 0.35L457.36 0.35Q456.01 0.7 454.51 0.7L454.51 0.7Q452.76 0.7 451.01 0.18 449.26-0.35 447.36-1.5L447.36-1.5Q447.26-4.15 449.36-5.4L449.36-5.4Q452.11-3.6 454.56-3.6L454.56-3.6Q456.66-3.6 457.91-4.73 459.16-5.85 459.16-7.6L459.16-7.6Q459.16-9.8 456.76-11.7L456.76-11.7 452.96-14.7Q451.96-15.5 451.16-16.35L451.16-16.35 446.16-7.9Q443.41-3.25 440.89-1.28 438.36 0.7 435.11 0.7Z" opacity="1" transform="matrix(1,0,0,1,0,0)" fill="#ffffff" class="wordmark-text-0" data-fill-palette-color="quaternary" id="text-0"></path></svg></g></svg></g></svg></g></svg></g><g></g></svg></g><defs></defs></svg><rect width="395.52" height="98.89981619976942" fill="none" stroke="none" visibility="hidden"></rect></g></svg></g></svg>