<svg xmlns="http://www.w3.org/2000/svg" version="1.1" xmlns:xlink="http://www.w3.org/1999/xlink" xmlns:svgjs="http://svgjs.dev/svgjs" width="2000" height="297" viewBox="0 0 2000 297"><g transform="matrix(1,0,0,1,-1.2121212121212466,-0.9967612766264438)"><svg viewBox="0 0 396 59" data-background-color="#ffffff" preserveAspectRatio="xMidYMid meet" height="297" width="2000" xmlns="http://www.w3.org/2000/svg" xmlns:xlink="http://www.w3.org/1999/xlink"><g id="tight-bounds" transform="matrix(1,0,0,1,0.2400000000000091,0.19800981589548883)"><svg viewBox="0 0 395.52 58.60398036820904" height="58.60398036820904" width="395.52"><g><svg viewBox="0 0 500.96697503791756 74.22800053156146" height="58.60398036820904" width="395.52"><g><rect width="4.843674161528771" height="53.97911760797341" x="87.92352558442866" y="10.124441461794028" fill="#742437" opacity="1" stroke-width="0" stroke="transparent" fill-opacity="1" class="rect-qz-0" data-fill-palette-color="primary" rx="1%" id="qz-0" data-palette-color="#742437"></rect></g><g transform="matrix(1,0,0,1,105.44697503791755,10.258717873754158)"><svg viewBox="0 0 395.52 53.71056478405315" height="53.71056478405315" width="395.52"><g id="textblocktransform"><svg viewBox="0 0 395.52 53.71056478405315" height="53.71056478405315" width="395.52" id="textblock"><g><svg viewBox="0 0 395.52 53.71056478405315" height="53.71056478405315" width="395.52"><g transform="matrix(1,0,0,1,0,0)"><svg width="395.52" viewBox="3.55 -38.5 361.17 49.05" height="53.71056478405315" data-palette-color="#742437"><g class="wordmark-text-0" data-fill-palette-color="primary" id="text-0"><path d="M3.7-34.5L3.7-34.5Q5.95-34.9 8.78-35.23 11.6-35.55 14.25-35.55L14.25-35.55Q18.5-35.55 21.23-34.65 23.95-33.75 25.5-32.33 27.05-30.9 27.63-29.13 28.2-27.35 28.2-25.6L28.2-25.6Q28.2-22.45 26.78-20.13 25.35-17.8 22.75-16.45L22.75-16.45Q24.3-15.7 25.33-14.73 26.35-13.75 26.95-12.35 27.55-10.95 27.78-9.03 28-7.1 28-4.55L28-4.55Q28-2.5 27.85 0L27.85 0 20.9 0.6Q21.05-1.05 21.15-2.55 21.25-4.05 21.25-5.4L21.25-5.4Q21.25-7.6 20.9-9.25 20.55-10.9 19.65-12.03 18.75-13.15 17.23-13.7 15.7-14.25 13.3-14.25L13.3-14.25Q12.75-14.25 12-14.23 11.25-14.2 10.45-14.1L10.45-14.1Q10.45-9.95 10.48-6.6 10.5-3.25 10.6 0L10.6 0 3.55 0Q3.65-2.4 3.73-4.23 3.8-6.05 3.85-8.03 3.9-10 3.93-12.45 3.95-14.9 3.95-18.55L3.95-18.55Q3.95-22.75 3.9-26.6 3.85-30.45 3.7-34.5ZM14.9-31.1L14.9-31.1Q13.9-31.1 12.8-30.93 11.7-30.75 10.55-30.45L10.55-30.45Q10.45-28.35 10.45-25.73 10.45-23.1 10.45-19.4L10.45-19.4 10.45-18.75Q11.85-18.45 13.7-18.45L13.7-18.45Q17.45-18.45 19.53-20.08 21.6-21.7 21.6-24.85L21.6-24.85Q21.6-27.75 19.83-29.43 18.05-31.1 14.9-31.1ZM38.85 0.6L38.85 0.6Q35.7 0.6 33.77-1.55 31.85-3.7 31.85-7.15L31.85-7.15Q31.85-10.75 33.95-12.9 36.05-15.05 39.55-15.05L39.55-15.05Q41-15.05 42.45-14.65 43.9-14.25 45.05-13.5L45.05-13.5 45.05-16.3Q45.05-18.65 44.15-19.6 43.25-20.55 41.05-20.55L41.05-20.55Q39.55-20.55 37.87-20.18 36.2-19.8 35.2-19.25L35.2-19.25 33.65-24.05Q34.4-24.35 35.45-24.65 36.5-24.95 37.7-25.15 38.9-25.35 40.15-25.48 41.4-25.6 42.45-25.6L42.45-25.6Q51.25-25.6 51.25-17L51.25-17Q51.25-16.25 51.17-14.8 51.1-13.35 51.02-11.78 50.95-10.2 50.87-8.85 50.8-7.5 50.8-6.95L50.8-6.95Q50.8-5.8 51.15-5.3 51.5-4.8 52.45-4.8L52.45-4.8Q53.1-4.8 53.95-5L53.95-5 53.15-0.2Q52.35 0.05 51.67 0.2 51 0.35 50.3 0.35L50.3 0.35Q48.45 0.35 47.2-0.68 45.95-1.7 45.7-3.6L45.7-3.6Q44.7-1.65 42.9-0.53 41.1 0.6 38.85 0.6ZM41.25-4L41.25-4Q42.85-4 43.97-5.15 45.1-6.3 45.1-8.05L45.1-8.05Q45.1-9.55 44.2-10.45 43.3-11.35 41.7-11.35L41.7-11.35Q40.05-11.35 39.1-10.35 38.15-9.35 38.15-7.6L38.15-7.6Q38.15-5.95 38.97-4.98 39.8-4 41.25-4ZM57.75-25L64.6-25Q64.45-23.85 64.37-22.8 64.3-21.75 64.27-20.48 64.25-19.2 64.22-17.53 64.2-15.85 64.2-13.55L64.2-13.55Q64.2-11.25 64.2-9.4 64.2-7.55 64.22-5.95 64.25-4.35 64.27-2.93 64.3-1.5 64.35 0L64.35 0 57.6 0Q57.65-1.85 57.72-3.25 57.8-4.65 57.85-6.23 57.9-7.8 57.95-9.78 58-11.75 58-14.7L58-14.7Q58-17.4 57.95-19.78 57.9-22.15 57.75-25L57.75-25ZM57.6-33.15L57.6-33.15Q57.6-34.55 58.57-35.58 59.55-36.6 61.25-36.6L61.25-36.6Q62.7-36.6 63.77-35.75 64.85-34.9 64.85-33.45L64.85-33.45Q64.85-32.05 63.82-31.1 62.8-30.15 61.1-30.15L61.1-30.15Q59.65-30.15 58.62-30.93 57.6-31.7 57.6-33.15ZM68.44-21.55L74.29-25.6Q75.29-24.15 75.89-23.05 76.49-21.95 76.79-20.8L76.79-20.8Q77.54-21.6 78.49-22.48 79.44-23.35 80.52-24.03 81.59-24.7 82.84-25.15 84.09-25.6 85.44-25.6L85.44-25.6Q86.69-25.6 87.87-25.15 89.04-24.7 89.94-23.65 90.84-22.6 91.39-20.8 91.94-19 91.94-16.3L91.94-16.3Q91.94-15.6 91.92-14.25 91.89-12.9 91.84-11.38 91.79-9.85 91.77-8.45 91.74-7.05 91.74-6.3L91.74-6.3Q91.74-4.65 91.97-3.13 92.19-1.6 92.74-0.6L92.74-0.6 85.79 0.6Q85.44-0.55 85.37-1.9 85.29-3.25 85.29-4.25L85.29-4.25Q85.29-5.65 85.37-7.13 85.44-8.6 85.52-9.98 85.59-11.35 85.67-12.58 85.74-13.8 85.74-14.7L85.74-14.7Q85.74-17.65 84.74-18.75 83.74-19.85 81.99-19.85L81.99-19.85Q80.54-19.85 79.32-19.4 78.09-18.95 77.14-18.3L77.14-18.3Q77.24-17.35 77.24-16.2 77.24-15.05 77.24-13.55L77.24-13.55Q77.24-11.25 77.24-9.4 77.24-7.55 77.27-5.95 77.29-4.35 77.32-2.93 77.34-1.5 77.39 0L77.39 0 70.64 0Q70.69-1.2 70.74-2.7 70.79-4.2 70.87-5.88 70.94-7.55 70.99-9.33 71.04-11.1 71.04-12.75L71.04-12.75Q71.04-14.7 70.94-15.93 70.84-17.15 70.54-18.07 70.24-19 69.74-19.78 69.24-20.55 68.44-21.55L68.44-21.55ZM97.84-38L104.69-38.5Q104.54-36.9 104.47-35.18 104.39-33.45 104.37-31.43 104.34-29.4 104.32-26.95 104.29-24.5 104.29-21.5L104.29-21.5Q105.79-23 107.84-24.3 109.89-25.6 112.39-25.6L112.39-25.6Q113.59-25.6 114.77-25.15 115.94-24.7 116.84-23.5 117.74-22.3 118.29-20.25 118.84-18.2 118.84-15L118.84-15Q118.84-11.1 118.07-8.18 117.29-5.25 115.87-3.3 114.44-1.35 112.49-0.38 110.54 0.6 108.14 0.6L108.14 0.6Q105.94 0.6 104.39-0.28 102.84-1.15 101.64-2.6L101.64-2.6 99.79 0 97.14 0Q97.74-2.3 97.92-7.3 98.09-12.3 98.09-20.7L98.09-20.7Q98.09-24.95 98.04-29.23 97.99-33.5 97.84-38L97.84-38ZM108.99-19.85L108.99-19.85Q107.54-19.85 106.37-19.43 105.19-19 104.29-18.4L104.29-18.4Q104.29-14.2 104.29-11.05 104.29-7.9 104.34-5.15L104.34-5.15Q105.59-2.9 107.84-2.9L107.84-2.9Q110.04-2.9 111.22-5.55 112.39-8.2 112.39-13.4L112.39-13.4Q112.39-15.45 112.14-16.7 111.89-17.95 111.44-18.65 110.99-19.35 110.37-19.6 109.74-19.85 108.99-19.85ZM133.69-21.5L133.69-21.5Q131.34-21.5 130.09-19.03 128.84-16.55 128.84-12.25L128.84-12.25Q128.84-8.05 129.86-5.73 130.89-3.4 133.44-3.4L133.44-3.4Q135.79-3.4 137.09-5.98 138.39-8.55 138.39-12.85L138.39-12.85Q138.39-14.85 138.19-16.45 137.99-18.05 137.46-19.18 136.94-20.3 136.01-20.9 135.09-21.5 133.69-21.5ZM122.29-12.1L122.29-12.1Q122.29-15.2 123.14-17.7 123.99-20.2 125.51-21.95 127.04-23.7 129.24-24.65 131.44-25.6 134.14-25.6L134.14-25.6Q139.24-25.6 142.06-22.35 144.89-19.1 144.89-13.25L144.89-13.25Q144.89-10.1 144.04-7.55 143.19-5 141.64-3.18 140.09-1.35 137.91-0.38 135.74 0.6 133.09 0.6L133.09 0.6Q130.59 0.6 128.59-0.3 126.59-1.2 125.19-2.85 123.79-4.5 123.04-6.85 122.29-9.2 122.29-12.1ZM178.24-25L184.69-25.6Q183.24-18.5 181.44-12.33 179.64-6.15 177.34 0L177.34 0 171.29 0.6Q170.54-1.4 169.81-3.6 169.09-5.8 168.39-8.08 167.69-10.35 167.06-12.65 166.44-14.95 165.99-17.15L165.99-17.15Q165.09-12.9 163.69-8.4 162.29-3.9 160.84 0L160.84 0 154.79 0.6Q152.49-5.55 150.66-11.73 148.84-17.9 147.44-25L147.44-25 153.89-25.6Q154.64-20.55 155.61-15.63 156.59-10.7 157.79-5.95L157.79-5.95Q159.29-10.65 160.56-15.3 161.84-19.95 162.84-25L162.84-25 169.29-25.6Q170.29-20.55 171.54-15.63 172.79-10.7 174.29-5.95L174.29-5.95Q175.49-10.65 176.49-15.3 177.49-19.95 178.24-25L178.24-25Z" fill="#742437" data-fill-palette-color="primary"></path><path d="M198.99-34.5L198.99-34.5Q200.99-34.9 203.91-35.25 206.84-35.6 210.34-35.6L210.34-35.6Q214.29-35.6 217.36-34.38 220.44-33.15 222.59-30.9 224.74-28.65 225.86-25.45 226.99-22.25 226.99-18.35L226.99-18.35Q226.99-14.25 225.71-10.78 224.44-7.3 222.11-4.78 219.79-2.25 216.54-0.83 213.29 0.6 209.29 0.6L209.29 0.6Q205.84 0.6 203.16 0.43 200.49 0.25 198.84 0L198.84 0Q198.89-2.4 198.96-4.23 199.04-6.05 199.09-8.03 199.14-10 199.19-12.55 199.24-15.1 199.24-18.95L199.24-18.95Q199.24-22.8 199.19-26.63 199.14-30.45 198.99-34.5ZM209.64-31.1L209.64-31.1Q208.79-31.1 207.81-30.93 206.84-30.75 205.84-30.5L205.84-30.5Q205.74-28.1 205.74-25.1 205.74-22.1 205.74-17.8L205.74-17.8Q205.74-13.35 205.74-10.1 205.74-6.85 205.79-4L205.79-4Q206.84-3.5 208.09-3.5L208.09-3.5Q210.64-3.5 212.86-4.3 215.09-5.1 216.74-6.85 218.39-8.6 219.34-11.33 220.29-14.05 220.29-17.95L220.29-17.95Q220.29-21.75 219.56-24.28 218.84-26.8 217.44-28.33 216.04-29.85 214.06-30.48 212.09-31.1 209.64-31.1ZM249.79-11.3L237.09-11.3Q237.34-7.5 238.64-5.98 239.94-4.45 242.59-4.45L242.59-4.45Q244.59-4.45 246.36-5.05 248.14-5.65 249.29-6.15L249.29-6.15 249.29-2Q247.69-0.55 245.29 0.03 242.89 0.6 240.64 0.6L240.64 0.6Q238.79 0.6 236.99 0.15 235.19-0.3 233.76-1.58 232.34-2.85 231.46-5.13 230.59-7.4 230.59-11.1L230.59-11.1Q230.59-14.75 231.49-17.48 232.39-20.2 233.96-22 235.54-23.8 237.66-24.7 239.79-25.6 242.29-25.6L242.29-25.6Q244.84-25.6 246.46-24.73 248.09-23.85 249.01-22.5 249.94-21.15 250.26-19.5 250.59-17.85 250.59-16.3L250.59-16.3Q250.59-14.7 250.36-13.4 250.14-12.1 249.79-11.3L249.79-11.3ZM241.39-21.95L241.39-21.95Q239.44-21.95 238.36-20.28 237.29-18.6 237.09-15L237.09-15 245.34-15Q245.34-15.2 245.36-15.5 245.39-15.8 245.39-16.05L245.39-16.05Q245.39-16.85 245.24-17.88 245.09-18.9 244.64-19.8 244.19-20.7 243.41-21.33 242.64-21.95 241.39-21.95ZM255.13-38L261.98-38.5Q261.83-36.75 261.76-34.9 261.68-33.05 261.66-30.83 261.63-28.6 261.61-25.85 261.58-23.1 261.58-19.55L261.58-19.55Q261.58-16.25 261.58-13.58 261.58-10.9 261.61-8.6 261.63-6.3 261.66-4.23 261.68-2.15 261.73 0L261.73 0 254.98 0Q255.03-2.6 255.11-4.6 255.18-6.6 255.23-8.78 255.28-10.95 255.33-13.73 255.38-16.5 255.38-20.7L255.38-20.7Q255.38-24.95 255.33-29.23 255.28-33.5 255.13-38L255.13-38ZM267.78-25L274.63-25Q274.48-23.85 274.41-22.8 274.33-21.75 274.31-20.48 274.28-19.2 274.26-17.53 274.23-15.85 274.23-13.55L274.23-13.55Q274.23-11.25 274.23-9.4 274.23-7.55 274.26-5.95 274.28-4.35 274.31-2.93 274.33-1.5 274.38 0L274.38 0 267.63 0Q267.68-1.85 267.76-3.25 267.83-4.65 267.88-6.23 267.93-7.8 267.98-9.78 268.03-11.75 268.03-14.7L268.03-14.7Q268.03-17.4 267.98-19.78 267.93-22.15 267.78-25L267.78-25ZM267.63-33.15L267.63-33.15Q267.63-34.55 268.61-35.58 269.58-36.6 271.28-36.6L271.28-36.6Q272.73-36.6 273.81-35.75 274.88-34.9 274.88-33.45L274.88-33.45Q274.88-32.05 273.86-31.1 272.83-30.15 271.13-30.15L271.13-30.15Q269.68-30.15 268.66-30.93 267.63-31.7 267.63-33.15ZM301.78-0.2L301.78-0.2Q301.78 2.15 300.48 4.13 299.18 6.1 296.95 7.53 294.73 8.95 291.85 9.75 288.98 10.55 285.83 10.55L285.83 10.55Q283.98 10.55 282.4 10.25 280.83 9.95 279.7 9.3 278.58 8.65 277.93 7.65 277.28 6.65 277.28 5.3L277.28 5.3Q277.28 3.4 278.45 2.1 279.63 0.8 281.83-0.5L281.83-0.5Q280.68-0.9 279.95-1.7 279.23-2.5 279.23-3.9L279.23-3.9Q279.23-4.85 279.58-5.7 279.93-6.55 280.53-7.25 281.13-7.95 281.88-8.55 282.63-9.15 283.43-9.65L283.43-9.65Q281.68-10.75 280.7-12.45 279.73-14.15 279.73-16.35L279.73-16.35Q279.73-18.3 280.53-20 281.33-21.7 282.75-22.93 284.18-24.15 286.18-24.88 288.18-25.6 290.53-25.6L290.53-25.6Q291.48-25.6 292.33-25.48 293.18-25.35 293.98-25.1L293.98-25.1Q294.28-25.65 294.98-26.53 295.68-27.4 296.65-28.25 297.63-29.1 298.88-29.78 300.13-30.45 301.48-30.6L301.48-30.6 301.73-24.85Q300.33-24.85 298.98-24.63 297.63-24.4 296.53-24L296.53-24Q298.23-22.9 299.15-21.2 300.08-19.5 300.08-17.4L300.08-17.4Q300.08-15.4 299.25-13.7 298.43-12 297-10.78 295.58-9.55 293.6-8.88 291.63-8.2 289.33-8.2L289.33-8.2Q287.33-8.2 285.53-8.75L285.53-8.75Q284.93-7.9 284.93-6.95L284.93-6.95Q284.93-5.6 286.03-5.23 287.13-4.85 288.73-4.85L288.73-4.85Q289.63-4.85 290.65-4.9 291.68-4.95 292.68-5.03 293.68-5.1 294.58-5.15 295.48-5.2 296.08-5.2L296.08-5.2Q298.83-5.2 300.3-3.95 301.78-2.7 301.78-0.2ZM290.03-21.6L290.03-21.6Q287.73-21.6 286.5-20.2 285.28-18.8 285.28-16.7L285.28-16.7Q285.28-14.5 286.53-13.3 287.78-12.1 289.78-12.1L289.78-12.1Q291.03-12.1 291.93-12.55 292.83-13 293.43-13.73 294.03-14.45 294.3-15.33 294.58-16.2 294.58-17.1L294.58-17.1Q294.58-19 293.43-20.3 292.28-21.6 290.03-21.6ZM296.23 2.4L296.23 2.4Q296.23 1.25 295.08 0.8 293.93 0.35 292.15 0.25 290.38 0.15 288.28 0.18 286.18 0.2 284.33 0L284.33 0Q282.73 1.55 282.73 2.95L282.73 2.95Q282.73 4.1 284.23 4.9 285.73 5.7 288.68 5.7L288.68 5.7Q290.18 5.7 291.55 5.48 292.93 5.25 293.98 4.8 295.03 4.35 295.63 3.75 296.23 3.15 296.23 2.4ZM305.73-38L312.58-38.5Q312.43-36.85 312.35-35.13 312.28-33.4 312.25-31.35 312.23-29.3 312.2-26.85 312.18-24.4 312.18-21.3L312.18-21.3Q312.93-22.1 313.83-22.88 314.73-23.65 315.75-24.25 316.78-24.85 317.93-25.23 319.08-25.6 320.33-25.6L320.33-25.6Q321.58-25.6 322.75-25.15 323.93-24.7 324.83-23.65 325.73-22.6 326.28-20.8 326.83-19 326.83-16.3L326.83-16.3Q326.83-15.6 326.8-14.25 326.78-12.9 326.73-11.38 326.68-9.85 326.65-8.45 326.63-7.05 326.63-6.3L326.63-6.3Q326.63-4.65 326.85-3.13 327.08-1.6 327.63-0.6L327.63-0.6 320.68 0.6Q320.33-0.55 320.25-1.9 320.18-3.25 320.18-4.25L320.18-4.25Q320.18-5.65 320.25-7.13 320.33-8.6 320.4-9.98 320.48-11.35 320.55-12.58 320.63-13.8 320.63-14.7L320.63-14.7Q320.63-17.65 319.63-18.75 318.63-19.85 316.88-19.85L316.88-19.85Q315.43-19.85 314.25-19.38 313.08-18.9 312.18-18.2L312.18-18.2Q312.18-15.25 312.18-12.8 312.18-10.35 312.2-8.18 312.23-6 312.25-4 312.28-2 312.33 0L312.33 0 305.58 0Q305.63-2.6 305.7-4.6 305.78-6.6 305.83-8.78 305.88-10.95 305.93-13.73 305.98-16.5 305.98-20.7L305.98-20.7Q305.98-24.95 305.93-29.23 305.88-33.5 305.73-38L305.73-38ZM330.47-21.45L330.12-24.6Q331.77-24.7 332.82-25.18 333.87-25.65 334.55-26.58 335.22-27.5 335.67-29 336.12-30.5 336.57-32.6L336.57-32.6 341.22-33.95Q340.77-31.2 340.52-29.1 340.27-27 340.07-25L340.07-25 345.47-25 345.02-20.75 339.82-21.1Q339.62-18.1 339.55-15.58 339.47-13.05 339.47-11.25L339.47-11.25Q339.47-9.2 339.6-7.98 339.72-6.75 340-6.08 340.27-5.4 340.75-5.18 341.22-4.95 341.97-4.95L341.97-4.95Q342.97-4.95 343.92-5.23 344.87-5.5 345.52-5.9L345.52-5.9 344.77-0.7Q343.57-0.05 342.52 0.28 341.47 0.6 340.02 0.6L340.02 0.6Q338.37 0.6 337.12 0.1 335.87-0.4 335.05-1.58 334.22-2.75 333.82-4.63 333.42-6.5 333.42-9.2L333.42-9.2Q333.42-11.45 333.65-14.7 333.87-17.95 334.12-21.45L334.12-21.45 330.47-21.45ZM356.87-4.7L356.87-4.7Q358.27-4.7 358.87-5.25 359.47-5.8 359.47-6.8L359.47-6.8Q359.47-7.45 359.25-7.9 359.02-8.35 358.55-8.7 358.07-9.05 357.32-9.38 356.57-9.7 355.52-10.1L355.52-10.1Q354.32-10.55 353.1-11.1 351.87-11.65 350.9-12.5 349.92-13.35 349.32-14.7 348.72-16.05 348.72-18.1L348.72-18.1Q348.72-20.5 349.65-21.98 350.57-23.45 351.92-24.25 353.27-25.05 354.82-25.33 356.37-25.6 357.67-25.6L357.67-25.6Q359.12-25.6 360.82-25.35 362.52-25.1 363.67-24.65L363.67-24.65 363.67-19.35Q362.82-19.65 361.87-19.88 360.92-20.1 360.02-20.25 359.12-20.4 358.32-20.48 357.52-20.55 357.02-20.55L357.02-20.55Q353.82-20.55 353.82-18.35L353.82-18.35Q353.82-16.8 355.22-16.03 356.62-15.25 358.67-14.5L358.67-14.5Q359.92-14.05 361.02-13.48 362.12-12.9 362.95-12.03 363.77-11.15 364.25-9.85 364.72-8.55 364.72-6.7L364.72-6.7Q364.72-2.9 362.62-1.15 360.52 0.6 357.17 0.6L357.17 0.6Q355.37 0.6 353.22 0.1 351.07-0.4 348.97-1.45L348.97-1.45 348.77-7.1Q349.42-6.65 350.42-6.23 351.42-5.8 352.57-5.48 353.72-5.15 354.85-4.93 355.97-4.7 356.87-4.7Z" fill="#a12710" data-fill-palette-color="secondary"></path></g></svg></g></svg></g></svg></g></svg></g><g><svg viewBox="0 0 75.24375029246853 74.22800053156146" height="74.22800053156146" width="75.24375029246853"><g><svg xmlns="http://www.w3.org/2000/svg" xmlns:xlink="http://www.w3.org/1999/xlink" version="1.1" x="0" y="0" viewBox="0.5259999999999962 1.8969997066728614 99.04100000000001 97.70400029332714" enable-background="new 0 0 100 100" xml:space="preserve" height="74.22800053156146" width="75.24375029246853" class="icon-icon-0" data-fill-palette-color="accent" id="icon-0"><path fill="#a12710" d="M50.047 99.601c-27.306 0-49.521-22.212-49.521-49.521 0-18.929 11.074-36.458 28.214-44.65 1.217-0.58 2.64-0.569 3.849 0.04 1.206 0.608 2.065 1.741 2.324 3.066 0.415 2.139 2.085 7.112 8.58 7.112 4.537 0 6.696-2.453 7.705-4.517 0.905-1.838 2.969-2.811 4.967-2.316 1.995 0.495 3.378 2.305 3.323 4.359-0.085 3.344 0.842 6.343 2.483 8.033 2.176 2.23 5.94 2.379 10.952 0.581 1.832-0.66 3.88-0.023 5.016 1.559 1.142 1.576 1.099 3.716-0.103 5.251-1.906 2.436-2.086 6.014-0.467 9.335 1.923 3.949 5.775 6.305 10.304 6.305 1.951 0 3.676-0.421 5.273-1.28 1.31-0.705 2.879-0.701 4.182 0.011 1.3 0.717 2.148 2.042 2.253 3.521l0.04 0.541c0.074 1.013 0.146 2.019 0.146 3.049C99.567 77.389 77.354 99.601 50.047 99.601zM28.271 15.665C16.59 23.079 9.266 36.118 9.266 50.08c0 22.49 18.294 40.782 40.781 40.782 21.588 0 39.313-16.864 40.697-38.108-1.003 0.148-2.025 0.223-3.07 0.223-7.831 0-14.789-4.296-18.161-11.213-1.59-3.267-2.216-6.731-1.908-10.021-0.248 0.006-0.491 0.012-0.734 0.012h-0.002c-4.461 0-8.316-1.542-11.154-4.449-1.385-1.429-2.51-3.175-3.335-5.149-2.568 1.457-5.583 2.23-8.886 2.23C36.768 24.387 31.232 21.099 28.271 15.665z" data-fill-palette-color="accent"></path><path fill="#a12710" d="M95.928 10.027c0 2.014-1.632 3.641-3.643 3.641-2.012 0-3.641-1.627-3.641-3.641 0-2.008 1.629-3.641 3.641-3.641C94.296 6.386 95.928 8.019 95.928 10.027z" data-fill-palette-color="accent"></path><circle fill="#a12710" cx="28.686" cy="39.356" r="6.2" data-fill-palette-color="accent"></circle><circle fill="#a12710" cx="33.175" cy="63.672" r="6.2" data-fill-palette-color="accent"></circle><circle fill="#a12710" cx="55.873" cy="71.444" r="6.2" data-fill-palette-color="accent"></circle><circle fill="#a12710" cx="53.093" cy="46.723" r="6.2" data-fill-palette-color="accent"></circle><path fill="#a12710" d="M78.326 7.604c0 3.146-2.554 5.7-5.704 5.7-3.148 0-5.702-2.554-5.702-5.7 0-3.152 2.554-5.707 5.702-5.707C75.772 1.896 78.326 4.452 78.326 7.604z" data-fill-palette-color="accent"></path><circle fill="#a12710" cx="93.014" cy="29.325" r="4.0" data-fill-palette-color="accent"></circle></svg></g></svg></g></svg></g><defs></defs></svg><rect width="395.52" height="58.60398036820904" fill="none" stroke="none" visibility="hidden"></rect></g></svg></g></svg>